<svg xmlns="http://www.w3.org/2000/svg" viewBox="0 0 463 172"><path fill="#0FF0D5" d="M255.29 68.7501V91.3501C255.29 97.6001 256.34 102.03 258.44 104.67C260.55 107.31 263.93 108.62 268.6 108.62C271.98 108.62 272.87 108.62 275.69 108.62V120.69C270.24 120.69 269.57 120.7 263.06 120.7C257.18 120.7 252.23 118.52 248.18 114.14C244.14 109.78 242.11 104.26 242.11 97.6001V68.7501V58.3901V46.8101H255.28V58.3901V68.7501H255.29Z"></path><path fill="#0FF0D5" d="M30.5 35.1799C30.5 31.5799 33.42 28.6699 37.02 28.6699C40.63 28.6699 43.54 31.5799 43.54 35.1799C43.54 38.7799 40.63 41.6999 37.02 41.6999C33.42 41.6999 30.5 38.7799 30.5 35.1799Z"></path><path fill="#0FF0D5" d="M117.46 35.1799C117.46 31.5799 120.38 28.6699 123.98 28.6699C127.58 28.6699 130.5 31.5799 130.5 35.1799C130.5 38.7799 127.58 41.6999 123.98 41.6999C120.37 41.6999 117.46 38.7799 117.46 35.1799Z"></path><path fill="#0FF0D5" d="M204.86 35.1799C204.86 31.5799 207.78 28.6699 211.39 28.6699C214.98 28.6699 217.91 31.5799 217.91 35.1799C217.91 38.7799 214.99 41.6999 211.39 41.6999C207.78 41.6999 204.86 38.7799 204.86 35.1799Z"></path><path fill="#0FF0D5" d="M291.99 35.1799C291.99 31.5799 294.9 28.6699 298.51 28.6699C302.1 28.6699 305.02 31.5799 305.02 35.1799C305.02 38.7799 302.1 41.6999 298.51 41.6999C294.9 41.6999 291.99 38.7799 291.99 35.1799Z"></path><path fill="#0FF0D5" d="M377.33 35.1799C377.33 31.5799 380.26 28.6699 383.85 28.6699C387.45 28.6699 390.37 31.5799 390.37 35.1799C390.37 38.7799 387.45 41.6999 383.85 41.6999C380.26 41.6999 377.33 38.7799 377.33 35.1799Z"></path><path fill="#0FF0D5" d="M30.3401 120.76V69.4398H20.1201V58.3398H43.4901V120.76H30.3401V120.76Z"></path><path fill="#0FF0D5" d="M110.03 120.76V90.4297C110.03 82.5297 108.83 76.9997 106.45 73.8397C104.07 70.6797 100.08 69.0797 94.4703 69.0797C91.4803 69.0797 88.3303 69.9897 85.0403 71.7897C81.7603 73.5897 79.2303 75.8097 77.4703 78.4297V120.76H64.3203V58.3397H77.7403L77.4903 68.8897C81.8403 61.6197 88.9403 57.9897 98.7803 57.9897C115.05 57.9897 123.19 67.8697 123.19 87.6397V120.75H110.03V120.76Z"></path><path fill="#0FF0D5" d="M146.65 68.6998H138.07V58.3398H146.65V46.7598H159.82V58.3398H180.23V68.6998H159.82V91.2998C159.82 97.5498 160.87 101.98 162.97 104.62C165.08 107.25 168.46 108.57 173.13 108.57C176.51 108.57 177.4 108.57 180.22 108.57V120.64C174.77 120.64 174.1 120.65 167.59 120.65C161.71 120.65 156.75 118.46 152.71 114.09C148.67 109.73 146.64 104.21 146.64 97.5498V68.6998H146.65Z"></path><path fill="#0FF0D5" d="M330.57 68.6998H321.99V58.3398H330.57V46.7598H343.74V58.3398H364.15V68.6998H343.74V91.2998C343.74 97.5498 344.79 101.98 346.89 104.62C349 107.25 352.39 108.57 357.06 108.57C360.44 108.57 361.33 108.57 364.15 108.57V120.64C358.7 120.64 358.03 120.65 351.52 120.65C345.64 120.65 340.69 118.46 336.64 114.09C332.6 109.73 330.57 104.21 330.57 97.5498V68.6998Z"></path><path fill="#0FF0D5" d="M204.73 120.76V69.4398H194.53V58.3398H217.9V120.76H204.73V120.76Z"></path><path fill="#0FF0D5" d="M291.85 120.76V69.4398H281.64V58.3398H305.02V120.76H291.85V120.76Z"></path><path fill="#0FF0D5" d="M410.56 133.39C408.86 138.11 405.28 142.04 399.82 145.18C394.36 148.33 388.28 149.9 381.55 149.9V138.06C387.04 138.06 391.74 136.78 395.65 134.22C399.56 131.64 401.51 128.52 401.51 124.82C401.51 120.75 400.8 116.74 399.37 112.79C397.93 108.84 396.08 103.96 393.82 98.1301L378.16 58.3101H391.62L408.91 103.88L424.32 58.3101H437.78L410.56 133.39Z"></path></svg>